<?xml version="1.0" encoding="utf-8"?>
<!-- Generator: Adobe Illustrator 27.4.1, SVG Export Plug-In . SVG Version: 6.00 Build 0)  -->
<svg version="1.1" id="Layer_1" xmlns="http://www.w3.org/2000/svg" xmlns:xlink="http://www.w3.org/1999/xlink" x="0px" y="0px"
	 viewBox="0 0 379 592" style="enable-background:new 0 0 379 592;" xml:space="preserve">
<style type="text/css">
	.st0{fill:none;stroke:#266F9C;stroke-width:3;enable-background:new    ;}
	.st1{fill:none;stroke:#266F9C;stroke-width:5;enable-background:new    ;}
	.st2{fill:none;stroke:#ECF1F8;stroke-width:5;}
	.st3{fill:none;stroke:#266F9C;stroke-width:3;}
</style>
<path id="Path_1671" class="st0" d="M53.7,65.3l0.9,2.5c4,10.9,16,16.4,26.8,12.5c10.9-4,16.4-16,12.5-26.8l-2.7-7.3
	c-7.7,0.1-14-6.1-14.1-13.8c-0.1-7.7,6.1-14,13.8-14.1s14,6.1,14.1,13.8c0,4.2-1.8,8.2-5.1,10.9l2.7,7.3c5.7,15.7-2.4,33-18.1,38.7
	s-33-2.4-38.7-18.1c0,0,0,0,0,0L45,68.4c-13.4,2.5-26.6-5.1-31.2-17.9L5.8,28.7C4,23.9,6.5,18.6,11.3,16.8l4.4-1.6
	c2.4-0.9,5.1,0.4,6,2.8s-0.4,5.1-2.8,6l-4.4,1.6l7.9,21.8C26,57,36.6,62,46.3,58.5c9.6-3.5,14.6-14.2,11.1-23.8l-7.9-21.8l-4.4,1.6
	c-2.4,0.9-5.1-0.4-6-2.8c-0.9-2.4,0.4-5.1,2.8-6l4.4-1.6c4.8-1.8,10.2,0.7,11.9,5.6c0,0,0,0,0,0l7.9,21.8
	C70.8,44.3,65.5,58.5,53.7,65.3 M92.7,36.6c2.4-0.9,3.7-3.5,2.8-6s-3.5-3.7-6-2.8c-2.4,0.9-3.7,3.5-2.8,6c0,0,0,0,0,0
	C87.6,36.3,90.3,37.5,92.7,36.6L92.7,36.6"/>
<path id="Path_1670" class="st1" d="M364.7,139.5c0.3-5.9-3.2-11.3-8.6-13.5l-93.8-37.9c-5.5-2.2-11.7-0.7-15.6,3.7l-36.3,41.5
	c-1.3,1.6-2.4,3.3-3.2,5.2l-24.7,61c-2.9,7,0.4,15.1,7.5,18c7,2.9,15.1-0.4,18-7.5c0-0.1,0.1-0.1,0.1-0.2l1.7-4.3l102.3,41.3
	l-1.7,4.3c-2.9,7,0.4,15.1,7.5,18c7,2.9,15.1-0.4,18-7.5c0-0.1,0.1-0.1,0.1-0.2l24.7-61c0.8-1.9,1.2-3.9,1.3-6L364.7,139.5z
	 M224.5,181.9c-7.1-2.9-10.5-10.9-7.6-18c2.9-7.1,10.9-10.5,18-7.6c7.1,2.9,10.5,10.9,7.6,18C239.6,181.3,231.6,184.8,224.5,181.9
	C224.5,181.9,224.5,181.9,224.5,181.9z M318.2,219.8c-7.1-2.9-10.5-10.9-7.6-18c2.9-7.1,10.9-10.5,18-7.6c7.1,2.9,10.5,10.9,7.6,18
	c0,0,0,0,0,0C333.3,219.2,325.3,222.6,318.2,219.8C318.2,219.8,318.2,219.8,318.2,219.8z M228.9,134.1l24-28.2c2.6-3,6.8-4,10.4-2.5
	l81.5,32.9c3.6,1.5,5.9,5.1,5.8,9.1l-2.3,36.9L228.9,134.1z"/>
<g id="Group_6351" transform="translate(113.073 472.664) rotate(-16)">
	<g id="Group_6343" transform="translate(10.377 21.876)">
		<path id="Path_1666" class="st2" d="M137.4-1.2C130.1-8.7,120-13,109.5-13C96.7-13,83.3-2.9,76.7,8.3C70.1-2.9,56.7-13,43.8-13
			C22-12.8,4.5,4.9,4.4,26.7c0.1,6.9,2.2,13.6,5.9,19.4l33.2,0L54,28c1.1-1.6,3.4-2,5-0.9c0.3,0.2,0.6,0.5,0.9,0.9l16.7,28.2
			l6.2-10.2l26.3,0c3.4-0.1,6.3,2.3,6.9,5.6c0.5,3.6-1.9,6.9-5.5,7.5c-0.4,0.1-0.7,0.1-1.1,0.1l-19.4,0L79.6,77.3
			c-1.1,1.6-3.4,2-5,0.9c-0.3-0.2-0.6-0.5-0.9-0.9L57,49l-6.2,10.2l-30.5,0c0,0.4,0.3,0.7,0.7,0.7c6.6,7.6,43.7,47,53.5,57.5
			c1.3,1.3,3.3,1.3,4.6,0c9.9-10.5,47-49.9,53.5-57.5c6.6-7.6,16.4-19.7,16.4-33.2C149,16.2,144.9,6.2,137.4-1.2"/>
	</g>
</g>
<g id="Group_6333-3_00000099623177266947349010000001544678390377234859_">
	<path id="Path_1661-2_00000129922558541108226590000018134791030064227503_" class="st3" d="M104.5,282.7L118,288l14.8-14.6
		l-21.3,0.8c-0.2,0-0.4,0.1-0.6,0.3l-6.7,5.3c-0.6,0.6-0.8,1.4-0.5,2.2C103.9,282.3,104.2,282.5,104.5,282.7"/>
	<path id="Path_1662-2_00000109014721299903740240000002902567466338376101_" class="st3" d="M170.9,266.3l-14.8-4.3
		c-2.6-0.7-5.4,0.1-7.2,2.1l-44.7,44l-10.7-0.6c-1.6-0.1-3,1.6-3,3.8c-0.1,1.2,0.3,2.3,1.1,3.2l10.4,11.2c0.3,0.4,0.8,0.5,1.2,0.3
		c3-1.6,14.1-9.6,27.2-19.3l2.6,36.7c0.1,1,0.7,1.7,1.4,1.6c0.3,0,0.5-0.2,0.7-0.4l5.9-6.6c0.3-0.4,0.6-0.9,0.6-1.4l5.6-42.3
		c9.4-7.1,18.4-13.9,24.7-18.8c1.8-1.3,2.4-4.3,1.5-6.7C173,267.6,172,266.7,170.9,266.3"/>
</g>
</svg>
