<svg xmlns="http://www.w3.org/2000/svg" xmlns:xlink="http://www.w3.org/1999/xlink" version="1.1" width="1000" height="1000" viewBox="0 0 1000 1000" xml:space="preserve">
<desc>Created with Fabric.js 3.5.0</desc>
<defs>
</defs>
<rect x="0" y="0" width="100%" height="100%" fill="#ffffff"/>
<g transform="matrix(-48.2276 0 0 -48.2276 500.0003 500.0004)" id="743805" clip-path="url(#CLIPPATH_1)">
<clipPath id="CLIPPATH_1">
	<rect transform="matrix(1 0 0 1 -0.469 -0.031)" id="SVGID_00000065071928167062956460000017710986195376415404_" x="-9.5" y="-9.5" rx="0" ry="0" width="19" height="19"/>
</clipPath>
<path style="stroke: none; stroke-width: 1; stroke-dasharray: none; stroke-linecap: butt; stroke-dashoffset: 0; stroke-linejoin: miter; stroke-miterlimit: 4; is-custom-font: none; font-file-url: none; fill: rgb(18,100,147); fill-rule: nonzero; opacity: 1;" vector-effect="non-scaling-stroke" transform=" translate(-9.95, -10.25)" d="M 9.2 1.8 c -1.3 -1.3 -3.4 -1.3 -4.7 0 c -1.3 1.3 -1.3 3.4 0 4.7 l 3.8 3.8 L 4.6 14 c -1.3 1.3 -1.3 3.4 0 4.7 s 3.4 1.3 4.7 0 l 0 0 l 0 0 l 3.7 -3.7 l 2.4 -2.4 l 0 0 c 1.3 -1.3 1.3 -3.4 0 -4.7 L 13 5.6 L 9.2 1.8 z" stroke-linecap="round"/>
</g>
</svg>