<?xml version="1.0" encoding="utf-8"?>
<!-- Generator: Adobe Illustrator 28.1.0, SVG Export Plug-In . SVG Version: 6.00 Build 0)  -->
<svg version="1.1" id="Layer_1" xmlns="http://www.w3.org/2000/svg" xmlns:xlink="http://www.w3.org/1999/xlink" x="0px" y="0px"
	 viewBox="0 0 96 40.3" style="enable-background:new 0 0 96 40.3;" xml:space="preserve">
<style type="text/css">
	.st0{clip-path:url(#SVGID_00000032625101272152760120000009479706947122923666_);fill:#FFFFFF;}
	.st1{clip-path:url(#SVGID_00000032625101272152760120000009479706947122923666_);fill:#FAA62E;}
</style>
<g id="Group_2" transform="translate(0 0)">
	<g>
		<defs>
			<rect id="SVGID_1_" width="96" height="40.3"/>
		</defs>
		<clipPath id="SVGID_00000105420865833765963900000004197773854815557517_">
			<use xlink:href="#SVGID_1_"  style="overflow:visible;"/>
		</clipPath>
		<path id="Path_9" style="clip-path:url(#SVGID_00000105420865833765963900000004197773854815557517_);fill:#FFFFFF;" d="
			M22.6,30.9c-1.6,0.7-3.2,1.3-4.9,1.6c1.4-0.6,2.7-1.4,3.9-2.3c-2-1.3-3.9-2.8-5.5-4.5c-4.4-4.5-6.2-11.5-6.9-16.7
			c-1.8,0.6-3.2,1.1-3.2,1.1c1-0.7,2-1.3,3.1-1.9C8.7,6.4,8.6,4.5,8.6,2.6C0.1,8-2.3,19.2,3,27.6c5.3,8.3,16.2,10.8,24.6,5.8
			C25.9,32.7,24.2,31.9,22.6,30.9"/>
		<path id="Path_10" style="clip-path:url(#SVGID_00000105420865833765963900000004197773854815557517_);fill:#FFFFFF;" d="M17.9,0
			c-1.9,0-3.9,0.3-5.7,0.9c-0.2,2-0.3,4-0.3,6c3.2-1.2,7-1.9,10.1-0.1c5,2.9-1.2,10-1.2,10s6.2-1,8.4,2.5c1.8,2.9,0.4,8-6.1,11.2
			c1.4,1,2.9,2,4.5,2.7c8.4-5.4,10.8-16.6,5.4-25C29.8,3.1,24.1,0,17.9,0L17.9,0z"/>
		<path id="Path_11" style="clip-path:url(#SVGID_00000105420865833765963900000004197773854815557517_);fill:#FFFFFF;" d="M19.9,9
			c-1.4-1.7-4.9-1.5-8-0.8c0.6,11.1,5.6,17.8,10.2,21.5c3.3-2.6,5.3-5.9,3.6-8.8c-1.5-2.5-6.2-2.9-10-1.4
			C19.3,16.8,22.6,12.2,19.9,9"/>
		<path id="Path_12" style="clip-path:url(#SVGID_00000105420865833765963900000004197773854815557517_);fill:#FAA62E;" d="
			M46.2,40.3l-2.1-3.6c0.8-0.3,20.6-8.5,51.8-5.3l-0.6,4C65.6,32.3,46.4,40.2,46.2,40.3"/>
		<path id="Path_13" style="clip-path:url(#SVGID_00000105420865833765963900000004197773854815557517_);fill:#FFFFFF;" d="
			M56.7,21.4l-0.3,4c-2.4,1-5,1.6-7.6,1.8c-8.1,0-11.3-5.5-11.3-10.6c0-6.4,5-11,12.2-11c2,0,3.9,0.3,5.8,0.8h0.7v4.8L55,11.3
			c-0.9-3.4-2.7-4.5-6.2-4.5c-4.9,0-7.6,4.3-7.6,9.1c0,6,3.2,9.9,7.9,9.9c3.5,0,5-1.7,6.4-5L56.7,21.4z"/>
		<path id="Path_14" style="clip-path:url(#SVGID_00000105420865833765963900000004197773854815557517_);fill:#FFFFFF;" d="M66,23.9
			v-4.5l-2.6,0.8c-1.1,0.2-1.9,1.2-2,2.3c0,1.3,1,2.3,2.3,2.4C64.5,24.8,65.3,24.4,66,23.9 M68.6,26.9c-1.2,0-2.2-0.7-2.5-1.8
			c-1,0.8-2.5,1.8-3.6,1.8c-2.4,0-4.4-1.6-4.4-3.6c0.2-1.7,1.4-3.1,3.1-3.6l4.8-1.5v-1c0-2.2-0.5-3.7-2.1-3.7
			c-2.1,0-3.8,3.1-3.8,3.1l-1.5-2.1c1.6-1.5,3.8-2.3,6-2.3c3,0,4.2,2.1,4.2,4.7v5.9c0,1.4,0.5,2,0.9,2c0.3,0,0.5-0.1,1-0.4l0.4,0.9
			L68.6,26.9z"/>
		<path id="Path_15" style="clip-path:url(#SVGID_00000105420865833765963900000004197773854815557517_);fill:#FFFFFF;" d="
			M77.4,14.3c0.9-1.2,2.2-2,3.7-2.1c0.9,0.1,1.7,0.5,2.3,1.1l-1.1,2.1c-0.7-0.5-1.5-0.8-2.3-1c-0.7,0-1.7,0.5-2.6,2v6.8
			c0,2.1,0.5,2.2,3.6,2.4v0.9h-8.9v-0.9c2-0.2,2.4-0.4,2.4-2.5v-7.1c0-2-0.2-2.2-2.2-2.3v-0.9l5.1-0.7L77.4,14.3z"/>
		<path id="Path_16" style="clip-path:url(#SVGID_00000105420865833765963900000004197773854815557517_);fill:#FFFFFF;" d="
			M86.7,17.5h5.6c0.5-0.1,0.5-0.2,0.5-0.7c0-1.8-1-3.3-2.8-3.3C88.6,13.5,87.1,14.9,86.7,17.5 M96,23.8c-1.4,1.8-3.5,3-5.8,3.1
			c-3.6,0-6.5-2.9-6.5-6.5c0-0.1,0-0.2,0-0.3c0-4.5,3.5-7.9,7.1-7.9c2.9,0.1,5.2,2.4,5.2,5.3c0,0.7-0.1,1.3-0.9,1.4h-8.5
			c0,4.2,2.5,5.8,4.7,5.8c1.5-0.1,3-0.7,4-1.8L96,23.8z"/>
	</g>
</g>
</svg>
